<svg width="655" height="55" viewBox="0 0 655 55" fill="none" xmlns="http://www.w3.org/2000/svg">
<g clip-path="url(#clip0_241_8232)">
<path d="M629.387 15.19L615.182 23.67L351.968 36L330.234 48.67L308.51 36L45.2857 23.67L26.8955 12.7L4.98291 4L46.3372 28.67L309.562 41L331.285 53.67L353.019 41L616.233 28.67L657.598 4L629.387 15.19Z" fill="#3C3C3B"/>
<path d="M311.511 37L333.234 49.67L354.968 37L618.182 24.67L632.388 16.19L659.547 0L615.028 17.67L348.081 27.67L332.898 42.62L318.387 27.67L51.4403 17.67L6.93164 0L29.8957 13.7L48.2859 24.67L311.511 37Z" fill="white"/>
</g>
<defs>
<clipPath id="clip0_241_8232">
<rect width="653.667" height="54.67" fill="white" transform="translate(0.931641)"/>
</clipPath>
</defs>
</svg>
